<svg width="32" height="21" viewBox="0 0 32 21" fill="none" xmlns="http://www.w3.org/2000/svg">
<path d="M9.68457 0C13.8183 0.000158938 17.2406 2.73073 18.6611 6.49316C19.9573 4.17772 22.2543 2.57438 25.0088 2.57422C28.2319 2.57422 30.8305 4.76841 31.9297 7.73145C32.0882 8.15911 31.7547 8.59082 31.2988 8.59082H29.7637C29.4767 8.59082 29.2224 8.41313 29.0967 8.15527C28.2594 6.43894 26.6722 5.36035 25.0088 5.36035C22.5759 5.36061 20.3077 7.66766 20.3076 10.9033C20.3077 14.1391 22.5759 16.446 25.0088 16.4463C26.5687 16.4463 28.0614 15.4983 28.9316 13.9648C29.0651 13.7299 29.3079 13.5713 29.5781 13.5713H31.1592C31.6273 13.5713 31.9618 14.0243 31.7793 14.4551C30.6052 17.2241 28.0927 19.2324 25.0088 19.2324C22.0755 19.2323 19.6602 17.4148 18.4209 14.8545C16.8787 18.3114 13.6008 20.7625 9.68457 20.7627C4.22316 20.7626 0.000397291 15.9972 0 10.3818C0 4.76613 4.2229 0.000138683 9.68457 0ZM9.68457 3C6.10574 3.00014 3 6.18758 3 10.3818C3.00039 14.5757 6.10596 17.7626 9.68457 17.7627C13.2631 17.7625 16.3687 14.5756 16.3691 10.3818C16.3691 6.18763 13.2634 3.00021 9.68457 3ZM9.51074 8.46582C10.4723 8.46606 11.252 9.24541 11.252 10.207C11.2519 11.1686 10.4723 11.948 9.51074 11.9482C8.54902 11.9482 7.76863 11.1687 7.76855 10.207C7.76855 9.24526 8.54898 8.46582 9.51074 8.46582ZM25.0088 8.81348C25.8743 8.81348 26.5761 9.51534 26.5762 10.3809C26.5762 11.2465 25.8744 11.9482 25.0088 11.9482C24.1434 11.948 23.4414 11.2463 23.4414 10.3809C23.4415 9.51547 24.1434 8.8137 25.0088 8.81348Z" fill="#22C55E"/>
</svg>
