<svg width="220" height="100" viewBox="0 0 220 100" fill="none" xmlns="http://www.w3.org/2000/svg">
<path d="M44 51C46.7614 51 49 48.7614 49 46C49 43.2386 46.7614 41 44 41C41.2386 41 39 43.2386 39 46C39 48.7614 41.2386 51 44 51Z" fill="#22C55E"/>
<path d="M88.5 51C90.9853 51 93 48.9853 93 46.5C93 44.0147 90.9853 42 88.5 42C86.0147 42 84 44.0147 84 46.5C84 48.9853 86.0147 51 88.5 51Z" fill="#22C55E"/>
<path d="M44.5 72C57.4787 72 68 60.5833 68 46.5C68 32.4167 57.4787 21 44.5 21C31.5213 21 21 32.4167 21 46.5C21 60.5833 31.5213 72 44.5 72Z" stroke="#22C55E" stroke-width="8"/>
<path d="M88.5 24.085C97.7543 24.085 105.215 30.385 108.371 38.8926C108.826 40.1205 107.869 41.3613 106.56 41.3613H102.15C101.326 41.3613 100.596 40.85 100.235 40.1095C97.8309 35.1816 93.276 32.085 88.5 32.085C81.5143 32.085 75.0001 38.7091 75 48C75.0001 57.2909 81.5143 63.915 88.5 63.915C92.9789 63.915 97.2633 61.1918 99.7618 56.7887C100.145 56.114 100.841 55.6592 101.617 55.6592H106.159C107.503 55.6592 108.463 56.9599 107.939 58.1968C104.568 66.1474 97.3548 71.915 88.5 71.915C76.1558 71.915 67.0001 60.7063 67 48C67.0001 35.2937 76.1558 24.085 88.5 24.085Z" fill="#22C55E"/>
<path d="M171 30C171 28.8954 170.105 28 169 28H164C162.895 28 162 28.8954 162 30V70C162 71.1046 162.895 72 164 72H169C170.105 72 171 71.1046 171 70V30Z" fill="white"/>
<path d="M161 18C161 16.8954 162.094 16 163.444 16H169.556C170.906 16 172 16.8954 172 18V23C172 24.1046 170.906 25 169.556 25H163.444C162.094 25 161 24.1046 161 23V18Z" fill="#22C55E"/>
<path d="M116 18.0364C116 16.9117 116.895 16 118 16H122C123.105 16 124 16.9117 124 18.0364V69.9636C124 71.0883 123.105 72 122 72H118C116.895 72 116 71.0883 116 69.9636V18.0364Z" fill="white"/>
<path d="M146 46C146 44.8954 146.895 44 148 44H152C153.105 44 154 44.8954 154 46V70C154 71.1046 153.105 72 152 72H148C146.895 72 146 71.1046 146 70V46Z" fill="white"/>
<path d="M124 31.4551C127.751 29.0847 132.392 27.8136 136.956 27.8135C142.364 27.8135 146.829 29.4964 149.885 32.916C152.87 36.2574 154 40.6899 154 45.209V64H146V45.209C146 41.9148 145.173 39.6498 143.92 38.2471C142.736 36.9226 140.679 35.8135 136.956 35.8135C128.978 35.8137 124 40.5309 124 45.209V65H116V24H124V31.4551Z" fill="white"/>
</svg>
